<svg xmlns="http://www.w3.org/2000/svg" version="1.1" xmlns:xlink="http://www.w3.org/1999/xlink" xmlns:svgjs="http://svgjs.dev/svgjs" width="1500" height="170" viewBox="0 0 1500 170"><g transform="matrix(1,0,0,1,-0.9090909090909918,-0.4414202749189826)"><svg viewBox="0 0 396 45" data-background-color="#ffffff" preserveAspectRatio="xMidYMid meet" height="170" width="1500" xmlns="http://www.w3.org/2000/svg" xmlns:xlink="http://www.w3.org/1999/xlink"><g id="tight-bounds" transform="matrix(1,0,0,1,0.2400000000000091,0.11684654336090716)"><svg viewBox="0 0 395.52 44.7663069132782" height="44.7663069132782" width="395.52"><g><svg viewBox="0 0 470.2283413007135 53.222052604140046" height="44.7663069132782" width="395.52"><g><rect width="3.4729519746741224" height="46.21307027855865" x="404.6114973159008" y="3.5044911627907" fill="#000000" opacity="1" stroke-width="0" stroke="transparent" fill-opacity="1" class="rect-qz-0" data-fill-palette-color="primary" rx="1%" id="qz-0" data-palette-color="#000000"></rect></g><g transform="matrix(1,0,0,1,0,7.355580352670586)"><svg viewBox="0 0 395.52 38.510891898798874" height="38.510891898798874" width="395.52"><g id="textblocktransform"><svg viewBox="0 0 395.52 38.510891898798874" height="38.510891898798874" width="395.52" id="textblock"><g><svg viewBox="0 0 395.52 38.510891898798874" height="38.510891898798874" width="395.52"><g transform="matrix(1,0,0,1,0,0)"><svg width="395.52" viewBox="0.1 -37.25 391.26 38.1" height="38.510891898798874" data-palette-color="#000000"><path d="M34.25-33L34.25-33 37.8-29.95Q35.55-25.7 33.77-22 32-18.3 30.43-14.78 28.85-11.25 27.35-7.53 25.85-3.8 24.2 0.45L24.2 0.45 21.5 0.45 21.95-4.85Q25.35-11 28.28-17.98 31.2-24.95 34.25-33ZM8.45-26.25L10.2-29.45Q9.95-26.95 9.8-23.7 9.65-20.45 9.6-16.85 9.55-13.25 9.58-9.68 9.6-6.1 9.7-2.95L9.7-2.95 15.05-1.9 14.35 0Q12.5-0.1 11-0.13 9.5-0.15 7.55-0.15L7.55-0.15Q5.2-0.15 3.63-0.13 2.05-0.1 0.75 0L0.75 0 0.1-1.9 5.1-2.95Q5.5-7.25 5.78-11.88 6.05-16.5 6.18-21.05 6.3-25.6 6.3-29.55L6.3-29.55 1.35-30.95 2.15-33Q3.75-32.95 5.13-32.9 6.5-32.85 8.2-32.85L8.2-32.85Q9.7-32.85 11.15-32.9 12.6-32.95 13.75-33L13.75-33Q15.4-29.3 16.85-26.1 18.3-22.9 19.75-19.9 21.2-16.9 22.8-13.88 24.4-10.85 26.4-7.45L26.4-7.45 24.2 0.45 21.5 0.45Q19.65-3.6 18.23-6.58 16.8-9.55 15.63-11.93 14.45-14.3 13.35-16.45 12.25-18.6 11.08-20.95 9.9-23.3 8.45-26.25L8.45-26.25ZM45.65-33L45.65-33 46.45-30.95 41.8-29.55Q41.95-26.15 42.05-23.45 42.15-20.75 42.25-18.43 42.35-16.1 42.45-13.8 42.55-11.5 42.68-8.88 42.8-6.25 43-2.95L43-2.95 47.65-1.9 46.85 0Q45.55-0.1 43.9-0.13 42.25-0.15 39.3-0.15L39.3-0.15Q36.6-0.15 34.88-0.1 33.15-0.05 31.65 0L31.65 0 30.95-1.9 35.6-2.95Q35.5-8.35 35.33-12.78 35.15-17.2 34.95-21.43 34.75-25.65 34.4-30.4L34.4-30.4 34.25-33Q35.35-32.95 36.7-32.9 38.05-32.85 39.45-32.85L39.45-32.85Q41.05-32.85 42.7-32.9 44.35-32.95 45.65-33ZM59.75 0.85L59.75 0.85Q56.6 0.85 54.82-1.3 53.05-3.45 52.8-7.55L52.8-7.55Q52.7-9.3 52.7-11.88 52.7-14.45 52.75-18.35L52.75-18.35 49.2-18.9 48.6-20.95Q51.5-20.95 54.32-21.15 57.15-21.35 59.6-21.7L59.6-21.7Q59.5-19.4 59.37-17.48 59.25-15.55 59.25-13.58 59.25-11.6 59.4-9L59.4-9Q59.55-6.1 60.75-5 61.95-3.9 63.1-3.9L63.1-3.9Q64.3-4.15 65.35-5.53 66.4-6.9 67.05-8.88 67.7-10.85 67.7-12.8L67.7-12.8 69-8.55Q68.7-6.1 67.45-3.95 66.2-1.8 64.22-0.48 62.25 0.85 59.75 0.85ZM68.1 0L68.1 0Q68.05-1.5 67.92-3.2 67.8-4.9 67.75-7.25L67.75-7.25 67.45-18.3 63.85-18.9 63.25-20.95Q66.2-20.95 68.95-21.15 71.7-21.35 74.2-21.7L74.2-21.7Q74.2-21.7 74.17-20.55 74.15-19.4 74.12-17.7 74.1-16 74.05-14.33 74-12.65 73.97-11.5 73.95-10.35 73.95-10.35L73.95-10.35Q74-8.65 74.12-7.13 74.25-5.6 74.45-2.9L74.45-2.9 78.2-1.85 77.25 0Q75.95-0.1 74.82-0.1 73.7-0.1 71.95-0.1L71.95-0.1Q71.2-0.1 70-0.05 68.8 0 68.1 0ZM90.4-37.25L90.4-37.25Q90.34-28.75 90.37-19.93 90.4-11.1 90.55-2.9L90.55-2.9 94.5-1.85 93.55 0Q92.65-0.05 91.87-0.08 91.09-0.1 90.02-0.13 88.95-0.15 87.09-0.15L87.09-0.15Q85.45-0.15 84.37-0.13 83.3-0.1 82.45-0.08 81.59-0.05 80.55 0L80.55 0 79.59-1.85 83.55-2.9Q83.64-8.25 83.67-13.88 83.7-19.5 83.62-24.63 83.55-29.75 83.34-33.6L83.34-33.6 79.05-34.3 78.55-36.25Q79.7-36.35 81.64-36.45 83.59-36.55 85.92-36.75 88.25-36.95 90.4-37.25ZM106.34-37.25L106.34-37.25Q106.34-32.2 106.34-27.75 106.34-23.3 106.32-19.9 106.29-16.5 106.24-14.55L106.24-14.55 106.39-2.9 110.09-1.85 109.39 0Q107.74-0.1 106.12-0.13 104.49-0.15 102.49-0.15L102.49-0.15Q100.54-0.15 98.84-0.1 97.14-0.05 95.69 0L95.69 0 94.84-1.85 99.19-2.9Q99.34-6.15 99.42-10.05 99.49-13.95 99.49-17.9L99.49-17.9Q99.49-22.35 99.37-26.2 99.24-30.05 98.94-33.65L98.94-33.65 95.04-34.3 94.49-36.35Q96.99-36.4 100.04-36.65 103.09-36.9 106.34-37.25ZM114.74-21.75L114.74-21.75Q117.84-21.75 119.67-19.6 121.49-17.45 121.69-14.05L121.69-14.05Q121.79-13.15 121.74-11.23 121.69-9.3 121.67-7.05 121.64-4.8 121.64-2.9L121.64-2.9 125.34-1.85 124.59 0Q121.89-0.15 118.09-0.15L118.09-0.15Q116.19-0.15 114.64-0.1 113.09-0.05 111.79 0L111.79 0 111.09-1.85 114.74-2.9Q114.84-4.6 114.89-5.78 114.94-6.95 114.97-8.13 114.99-9.3 114.94-10.9L114.94-10.9Q114.89-14.4 113.72-15.7 112.54-17 110.19-17L110.19-17Q107.99-15.55 107.12-13.55 106.24-11.55 106.29-9.65L106.29-9.65 104.49-11.85Q104.84-14.7 106.27-16.95 107.69-19.2 109.89-20.48 112.09-21.75 114.74-21.75ZM138.44-21.7L138.44-21.7Q142.14-21.7 144.62-20.15 147.09-18.6 148.31-16.1 149.54-13.6 149.54-10.7L149.54-10.7Q149.54-7.75 148.29-5.18 147.04-2.6 144.54-1.05 142.04 0.5 138.29 0.5L138.29 0.5Q134.54 0.5 131.99-1.07 129.44-2.65 128.14-5.25 126.84-7.85 126.84-10.8L126.84-10.8Q126.84-13.7 128.12-16.18 129.39-18.65 131.97-20.18 134.54-21.7 138.44-21.7ZM133.84-11.85L133.84-11.85Q133.84-9.35 134.41-7.1 134.99-4.85 136.14-3.45 137.29-2.05 138.89-2.05L138.89-2.05Q140.79-2.05 141.72-4.13 142.64-6.2 142.64-9.3L142.64-9.3Q142.64-11.8 142.06-14.03 141.49-16.25 140.37-17.68 139.24-19.1 137.59-19.1L137.59-19.1Q135.69-19.1 134.77-17.03 133.84-14.95 133.84-11.85ZM162.29 0.85L162.29 0.85Q159.14 0.85 157.36-1.3 155.59-3.45 155.34-7.55L155.34-7.55Q155.24-9.3 155.24-11.88 155.24-14.45 155.29-18.35L155.29-18.35 151.74-18.9 151.14-20.95Q154.04-20.95 156.86-21.15 159.69-21.35 162.14-21.7L162.14-21.7Q162.04-19.4 161.91-17.48 161.79-15.55 161.79-13.58 161.79-11.6 161.94-9L161.94-9Q162.09-6.1 163.29-5 164.49-3.9 165.64-3.9L165.64-3.9Q166.84-4.15 167.89-5.53 168.94-6.9 169.59-8.88 170.24-10.85 170.24-12.8L170.24-12.8 171.54-8.55Q171.24-6.1 169.99-3.95 168.74-1.8 166.76-0.48 164.79 0.85 162.29 0.85ZM170.64 0L170.64 0Q170.59-1.5 170.46-3.2 170.34-4.9 170.29-7.25L170.29-7.25 169.99-18.3 166.39-18.9 165.79-20.95Q168.74-20.95 171.49-21.15 174.24-21.35 176.74-21.7L176.74-21.7Q176.74-21.7 176.71-20.55 176.69-19.4 176.66-17.7 176.64-16 176.59-14.33 176.54-12.65 176.51-11.5 176.49-10.35 176.49-10.35L176.49-10.35Q176.54-8.65 176.66-7.13 176.79-5.6 176.99-2.9L176.99-2.9 180.74-1.85 179.79 0Q178.49-0.1 177.36-0.1 176.24-0.1 174.49-0.1L174.49-0.1Q173.74-0.1 172.54-0.05 171.34 0 170.64 0ZM182.64-1.3L182.64-1.3Q183.04-3.2 183.31-4.48 183.59-5.75 183.79-7.25L183.79-7.25 186.29-7.25 187.09-3.35Q187.74-2.8 188.64-2.5 189.54-2.2 190.44-2.2L190.44-2.2Q191.69-2.2 192.66-2.8 193.64-3.4 193.64-4.65L193.64-4.65Q193.64-5.7 192.86-6.38 192.09-7.05 190.89-7.58 189.69-8.1 188.34-8.63 186.99-9.15 185.79-9.95 184.59-10.75 183.81-11.95 183.04-13.15 183.04-15L183.04-15Q183.04-17.55 184.29-19.03 185.54-20.5 187.56-21.15 189.59-21.8 191.84-21.8L191.84-21.8Q193.59-21.8 195.49-21.4 197.39-21 198.94-20.25L198.94-20.25Q198.54-18.5 198.21-17.15 197.89-15.8 197.64-14.5L197.64-14.5 195.04-14.55 194.39-17.95Q193.49-19.15 191.44-19.15L191.44-19.15Q190.34-19.15 189.41-18.65 188.49-18.15 188.49-17L188.49-17Q188.49-15.9 189.29-15.23 190.09-14.55 191.36-14.05 192.64-13.55 194.09-12.98 195.54-12.4 196.81-11.55 198.09-10.7 198.89-9.38 199.69-8.05 199.69-6L199.69-6Q199.69-3.6 198.39-2.18 197.09-0.75 194.94-0.13 192.79 0.5 190.29 0.5L190.29 0.5Q188.39 0.5 186.44 0.1 184.49-0.3 182.64-1.3ZM212.18-21.75L212.18-21.75Q212.13-18.85 212.06-16.2 211.98-13.55 211.98-11.4L211.98-11.4Q211.98-9.55 212.06-7.15 212.13-4.75 212.18-2.9L212.18-2.9 216.18-1.85 215.33 0Q214.03-0.1 212.71-0.13 211.38-0.15 208.73-0.15L208.73-0.15Q206.28-0.15 204.91-0.1 203.53-0.05 201.98 0L201.98 0 201.18-1.85 205.43-2.9Q205.53-5.4 205.56-7.25 205.58-9.1 205.53-11.3L205.53-11.3Q205.53-12.45 205.51-13.35 205.48-14.25 205.43-15.38 205.38-16.5 205.23-18.25L205.23-18.25 201.68-18.9 200.93-20.8Q202.08-20.85 203.91-20.95 205.73-21.05 207.88-21.25 210.03-21.45 212.18-21.75ZM208.43-25.45L208.43-25.45Q206.83-25.45 205.68-26.65 204.53-27.85 204.53-29.6L204.53-29.6Q204.53-31.25 205.68-32.45 206.83-33.65 208.43-33.65L208.43-33.65Q210.03-33.65 211.18-32.45 212.33-31.25 212.33-29.6L212.33-29.6Q212.33-27.85 211.18-26.65 210.03-25.45 208.43-25.45ZM227.58-21.85L227.58-21.85Q230.08-21.85 232.21-20.75 234.33-19.65 235.61-17.43 236.88-15.2 236.88-11.85L236.88-11.85Q235.78-11.65 233.98-11.5 232.18-11.35 230.03-11.28 227.88-11.2 225.73-11.2L225.73-11.2Q224.13-11.2 222.98-11.25 221.83-11.3 221.43-11.35L221.43-11.35 221.43-13.75Q221.98-13.75 223.11-13.75 224.23-13.75 225.63-13.8 227.03-13.85 228.36-13.95 229.68-14.05 230.58-14.2L230.58-14.2Q230.53-15.25 230.01-16.32 229.48-17.4 228.43-18.15 227.38-18.9 225.73-18.9L225.73-18.9Q224.73-17.95 224.13-16.28 223.53-14.6 223.53-12.4L223.53-12.4Q223.53-7.9 225.41-5.78 227.28-3.65 230.03-3.65L230.03-3.65Q232.83-3.65 235.93-5.65L235.93-5.65 237.03-3.35Q234.88-1.4 232.43-0.55 229.98 0.3 227.58 0.3L227.58 0.3Q224.78 0.3 222.36-0.93 219.93-2.15 218.46-4.6 216.98-7.05 216.98-10.7L216.98-10.7Q216.98-14.4 218.51-16.88 220.03-19.35 222.46-20.6 224.88-21.85 227.58-21.85ZM258.13-21.75L258.13-21.75Q260.98-21.75 262.8-19.6 264.63-17.45 264.83-14.05L264.83-14.05Q264.88-13.15 264.83-11.23 264.78-9.3 264.75-7.05 264.73-4.8 264.73-2.9L264.73-2.9 268.48-1.85 267.68 0Q266.38-0.1 264.73-0.13 263.08-0.15 261.48-0.15L261.48-0.15Q259.53-0.15 257.98-0.1 256.43-0.05 255.13 0L255.13 0 254.48-1.85 258.13-2.9Q258.18-4.6 258.23-5.78 258.28-6.95 258.3-8.13 258.33-9.3 258.28-10.9L258.28-10.9Q258.23-13.95 257.18-15.35 256.13-16.75 254.08-17.2L254.08-17.2Q251.88-15.75 250.88-13.65 249.88-11.55 249.93-9.65L249.93-9.65 248.08-11.85Q248.43-14.7 249.8-16.95 251.18-19.2 253.33-20.48 255.48-21.75 258.13-21.75ZM249.98-22L249.98-22Q249.98-20.35 249.98-19.33 249.98-18.3 249.95-17.28 249.93-16.25 249.83-14.55L249.83-14.55 250.03-2.9 253.68-1.85 253.03 0Q251.33-0.1 249.83-0.13 248.33-0.15 246.53-0.15L246.53-0.15Q244.58-0.15 243.15-0.1 241.73-0.05 240.28 0L240.28 0 239.48-1.85 243.23-2.9Q243.23-4.5 243.35-6.68 243.48-8.85 243.48-10.8L243.48-10.8Q243.48-12.25 243.45-13.23 243.43-14.2 243.33-15.28 243.23-16.35 243.03-18.1L243.03-18.1 239.13-19.05 238.53-20.95Q241.48-21.1 244.1-21.38 246.73-21.65 249.98-22ZM297.02-33L297.02-33Q302.62-33 305.32-30.43 308.02-27.85 308.02-23.65L308.02-23.65Q308.02-20.45 306.45-18.03 304.87-15.6 301.95-14.25 299.02-12.9 294.97-12.9L294.97-12.9Q294.07-12.9 292.77-13.05 291.47-13.2 290.02-13.5L290.02-13.5 290.02-16.65Q291.67-16.3 292.85-16.07 294.02-15.85 294.92-15.85L294.92-15.85Q295.62-15.85 296.22-15.93 296.82-16 297.37-16.1L297.37-16.1Q298.97-17.15 299.75-19.03 300.52-20.9 300.52-23L300.52-23Q300.52-24.8 299.97-26.43 299.42-28.05 298.32-29.08 297.22-30.1 295.62-30.1L295.62-30.1Q294.62-30.1 293.77-29.98 292.92-29.85 292.27-29.75L292.27-29.75Q292.27-28.35 292.27-26.13 292.27-23.9 292.27-21.5 292.27-19.1 292.27-17.05 292.27-15 292.27-13.9L292.27-13.9Q292.27-12.2 292.27-11.18 292.27-10.15 292.27-9.47 292.27-8.8 292.27-8.08 292.27-7.35 292.27-6.23 292.27-5.1 292.27-3.2L292.27-3.2 297.77-1.9 297.07 0Q294.47-0.15 288.52-0.15L288.52-0.15Q286.07-0.15 284.22-0.1 282.37-0.05 280.82 0L280.82 0 280.07-1.9 284.72-2.95Q284.82-5.2 284.87-8.03 284.92-10.85 284.95-13.6 284.97-16.35 284.97-18.3L284.97-18.3Q284.97-20.9 284.95-22.73 284.92-24.55 284.87-26.18 284.82-27.8 284.72-29.8L284.72-29.8 280.27-31.1 280.82-33Q282.37-32.95 283.52-32.9 284.67-32.85 285.85-32.83 287.02-32.8 288.47-32.8L288.47-32.8Q290.02-32.8 291.27-32.85 292.52-32.9 293.85-32.95 295.17-33 297.02-33ZM321.52-21.75L321.52-21.75Q321.47-18.85 321.4-16.2 321.32-13.55 321.32-11.4L321.32-11.4Q321.32-9.55 321.4-7.15 321.47-4.75 321.52-2.9L321.52-2.9 325.52-1.85 324.67 0Q323.37-0.1 322.05-0.13 320.72-0.15 318.07-0.15L318.07-0.15Q315.62-0.15 314.25-0.1 312.87-0.05 311.32 0L311.32 0 310.52-1.85 314.77-2.9Q314.87-5.4 314.9-7.25 314.92-9.1 314.87-11.3L314.87-11.3Q314.87-12.45 314.85-13.35 314.82-14.25 314.77-15.38 314.72-16.5 314.57-18.25L314.57-18.25 311.02-18.9 310.27-20.8Q311.42-20.85 313.25-20.95 315.07-21.05 317.22-21.25 319.37-21.45 321.52-21.75ZM317.77-25.45L317.77-25.45Q316.17-25.45 315.02-26.65 313.87-27.85 313.87-29.6L313.87-29.6Q313.87-31.25 315.02-32.45 316.17-33.65 317.77-33.65L317.77-33.65Q319.37-33.65 320.52-32.45 321.67-31.25 321.67-29.6L321.67-29.6Q321.67-27.85 320.52-26.65 319.37-25.45 317.77-25.45ZM327.22 0L327.22 0Q326.77-0.4 326.49-0.88 326.22-1.35 326.07-1.85L326.07-1.85Q328.22-4.7 330.29-7.73 332.37-10.75 334.14-13.48 335.92-16.2 337.07-18L337.07-18Q336.82-18.05 336.52-18.05 336.22-18.05 335.92-18.05L335.92-18.05Q334.62-18.05 333.19-17.88 331.77-17.7 331.07-17.4L331.07-17.4Q330.22-15.9 329.37-13.6L329.37-13.6 326.62-13.6Q326.82-15.4 326.94-17.53 327.07-19.65 327.07-21L327.07-21Q328.82-20.9 330.27-20.88 331.72-20.85 333.12-20.85L333.12-20.85 336.12-20.85Q337.97-20.85 339.94-20.9 341.92-20.95 344.27-21L344.27-21Q344.57-20.65 344.89-20.08 345.22-19.5 345.37-19.1L345.37-19.1Q344.07-17.4 342.42-15.03 340.77-12.65 339.19-10.23 337.62-7.8 336.44-5.83 335.27-3.85 334.87-2.9L334.87-2.9Q335.12-2.85 335.42-2.83 335.72-2.8 336.07-2.8L336.07-2.8Q337.07-2.8 338.37-3.03 339.67-3.25 340.77-3.75L340.77-3.75Q341.47-4.6 341.99-5.55 342.52-6.5 343.07-7.6L343.07-7.6 345.77-6.95Q345.42-5.4 345.07-3.58 344.72-1.75 344.52 0L344.52 0Q342.77-0.1 340.34-0.1 337.92-0.1 335.42-0.1L335.42-0.1Q332.97-0.1 330.77-0.1 328.57-0.1 327.22 0ZM348.22 0L348.22 0Q347.77-0.4 347.49-0.88 347.22-1.35 347.07-1.85L347.07-1.85Q349.22-4.7 351.29-7.73 353.37-10.75 355.14-13.48 356.92-16.2 358.07-18L358.07-18Q357.82-18.05 357.52-18.05 357.22-18.05 356.92-18.05L356.92-18.05Q355.62-18.05 354.19-17.88 352.77-17.7 352.07-17.4L352.07-17.4Q351.22-15.9 350.37-13.6L350.37-13.6 347.62-13.6Q347.82-15.4 347.94-17.53 348.07-19.65 348.07-21L348.07-21Q349.82-20.9 351.27-20.88 352.72-20.85 354.12-20.85L354.12-20.85 357.12-20.85Q358.97-20.85 360.94-20.9 362.92-20.95 365.27-21L365.27-21Q365.57-20.65 365.89-20.08 366.22-19.5 366.37-19.1L366.37-19.1Q365.07-17.4 363.42-15.03 361.77-12.65 360.19-10.23 358.62-7.8 357.44-5.83 356.27-3.85 355.87-2.9L355.87-2.9Q356.12-2.85 356.42-2.83 356.72-2.8 357.07-2.8L357.07-2.8Q358.07-2.8 359.37-3.03 360.67-3.25 361.77-3.75L361.77-3.75Q362.47-4.6 362.99-5.55 363.52-6.5 364.07-7.6L364.07-7.6 366.77-6.95Q366.42-5.4 366.07-3.58 365.72-1.75 365.52 0L365.52 0Q363.77-0.1 361.34-0.1 358.92-0.1 356.42-0.1L356.42-0.1Q353.97-0.1 351.77-0.1 349.57-0.1 348.22 0ZM380.96-21.8L380.96-21.8Q383.61-21.8 385.56-20.18 387.51-18.55 387.51-15.25L387.51-15.25Q387.51-13.1 387.44-11.65 387.36-10.2 387.29-9.08 387.21-7.95 387.21-6.75L387.21-6.75Q387.21-5.35 387.39-4.78 387.56-4.2 388.36-4.2L388.36-4.2Q389.06-4.2 390.46-4.85L390.46-4.85 391.36-2.65Q389.56-1.4 387.91-0.58 386.26 0.25 384.41 0.25L384.41 0.25Q382.86 0.25 381.71-0.98 380.56-2.2 380.56-4.85L380.56-4.85Q380.56-7.3 380.79-9.68 381.01-12.05 381.01-13.9L381.01-13.9Q381.01-15.45 380.56-16.4 380.11-17.35 379.06-17.7L379.06-17.7Q376.76-17.6 374.66-16.85 372.56-16.1 370.36-14.95L370.36-14.95 369.06-17.1Q371.91-19.2 374.84-20.5 377.76-21.8 380.96-21.8ZM384.51-13.95L384.51-13.95 381.51-9.8Q380.41-9.55 379.56-9.3 378.71-9.05 378.01-8.9L378.01-8.9Q376.31-8.55 375.66-8.03 375.01-7.5 375.01-6.2L375.01-6.2Q375.01-5.15 375.56-4.55 376.11-3.95 377.06-3.95L377.06-3.95Q378.21-3.95 379.99-5.03 381.76-6.1 383.01-7.75L383.01-7.75 383.96-5.7Q383.16-4.7 381.69-3.25 380.21-1.8 378.16-0.68 376.11 0.45 373.66 0.45L373.66 0.45Q372.41 0.45 371.24-0.23 370.06-0.9 369.29-2.25 368.51-3.6 368.51-5.6L368.51-5.6Q368.51-7.7 369.79-8.88 371.06-10.05 373.26-10.7 375.46-11.35 378.11-11.8L378.11-11.8Q379.91-12.1 381.46-12.58 383.01-13.05 384.51-13.95Z" opacity="1" transform="matrix(1,0,0,1,0,0)" fill="#000000" class="wordmark-text-0" data-fill-palette-color="primary" id="text-0"></path></svg></g></svg></g></svg></g></svg></g><g transform="matrix(1,0,0,1,417.17594660647575,0)"><svg viewBox="0 0 53.05239469423772 53.222052604140046" height="53.222052604140046" width="53.05239469423772"><g><svg xmlns="http://www.w3.org/2000/svg" xmlns:xlink="http://www.w3.org/1999/xlink" version="1.1" x="0" y="0" viewBox="7.157189888019729 3.9859999999999967 89.67459557055362 89.96136876040718" enable-background="new 0 0 100 100" xml:space="preserve" height="53.222052604140046" width="53.05239469423772" class="icon-icon-0" data-fill-palette-color="accent" id="icon-0"><g fill="#000000" data-fill-palette-color="accent"><g fill="#000000" data-fill-palette-color="accent"><path d="M13.94 7.583c0 0-5.963-3.665-6.233 3.014-0.267 6.679 10.747 20.552 21.625 32.124 11.505 12.243 11.561 12.188 21.943 21.247l5.328 0.141c0 0 19.336 21.263 26.287 28.216 5.077 5.078 12.768-3.027 8.761-7.033L13.94 7.583z" fill="#000000" data-fill-palette-color="accent"></path><path d="M8.928 83.346c-5.346 5.346 2.518 14.812 8.934 8.399 6.414-6.415 23.93-23.93 23.93-23.93l-8.721-8.613C33.071 59.202 14.272 77.999 8.928 83.346z" fill="#000000" data-fill-palette-color="accent"></path><path d="M96.476 21.006c-0.773-1.869-2.612-3.122-4.577-3.122-1.284 0-2.491 0.528-3.49 1.528l-15.251 15.25c-2.038 2.039-4.656 2.168-6.37 0.458l-1.045-1.046c-2.396-2.394-0.65-5.404 0.604-6.661l14.919-14.919c1.597-1.594 2.088-3.659 1.317-5.523-0.74-1.785-2.521-2.985-4.434-2.985-0.963 0-2.41 0.299-3.833 1.72L58.315 21.706c-4.348 4.349-6.082 11.852-0.739 17.195 1.054 1.054 1.127 1.133 1.2 1.236 0.162 0.221 0.289 0.394 3.035 3.141 2.266 2.265 4.997 3.463 7.905 3.463 3.281 0 6.628-1.538 9.424-4.334l16.164-16.167C96.782 24.762 97.22 22.806 96.476 21.006z" fill="#000000" data-fill-palette-color="accent"></path></g></g></svg></g></svg></g></svg></g><defs></defs></svg><rect width="395.52" height="44.7663069132782" fill="none" stroke="none" visibility="hidden"></rect></g></svg></g></svg>